<svg id="Calque_1" data-name="Calque 1" xmlns="http://www.w3.org/2000/svg" viewBox="0 0 667.21 187.13">
<defs><style>.cls-1{fill:#fff;}</style></defs><path class="cls-1" d="M949.41,408.15c-15.7-14.63-31.52-29.13-47.07-43.92s-30.91-30-45.17-43.8v84.88H830.5v-149c11.86,9.5,21.67,19.59,31.9,29.2,10.41,9.78,21,19.35,31.29,29.27s20.1,20.07,29.75,29.73V261c3.28,5.68,6.12,10.54,8.89,15.44,5.57,9.82,11.17,19.63,16.59,29.53a14.38,14.38,0,0,1,1.94,6.53c.12,31,.07,61.93,0,92.9a10.9,10.9,0,0,1-.19,1.48Z" transform="translate(-523.6 -221.01)"/><path class="cls-1" d="M1182.1,280.72l-23.39,15.1c-2.49-2.85-4.79-5.85-7.46-8.46-4.69-4.59-16.67-5.3-22-1.53-8.29,5.83-7,18.66,2.92,23.89,9.67,5.1,19.92,9.07,29.71,13.94,12.35,6.15,22.94,14.24,27,28.34,7,24.37-4.16,48.83-33.7,54.35-18.14,3.39-35.74,1.59-51.78-8.74-7.2-4.63-14.44-12.7-17.55-20.58l22.84-13.46c4.75,4.54,8.69,9.41,13.64,12.8,9.28,6.36,19.71,7.09,29.87,2.31,10.56-5,12.13-17,2.64-23.69-7.34-5.21-16-8.61-24.27-12.43-10.3-4.77-20.52-9.57-27.64-18.92-16.9-22.2-9.3-56.72,21.44-64.76,16.9-4.42,33-2.58,46.76,9.15C1175.12,271.5,1178.18,276.14,1182.1,280.72Z" transform="translate(-523.6 -221.01)"/><path class="cls-1" d="M523.6,405V379.57h5.29c13.65,0,27.3.15,41,0,25.25-.32,42.79-14.88,44.8-39.88.89-11,.32-21.68-4.5-31.59-8.17-16.77-23.15-22.51-40.59-23-15.13-.4-30.28-.08-45.81-.08V259.35c.08-.07.33-.47.57-.47,22.39.49,44.86-2.13,67.11,2.65,27.27,5.86,50,30,53.86,57.61,3.23,23-1,43.94-16.49,61.8-12.18,14.06-28,22.46-46.28,23.74C563.16,406,543.64,405,523.6,405Z" transform="translate(-523.6 -221.01)"/><path class="cls-1" d="M935.83,258.74c10.66,0,20.63-.14,30.59.16,1.41,0,3.27,2,4,3.47,11.81,22.81,26.39,44.22,34.89,68.7a24.67,24.67,0,0,0,1.48,2.81c2.46-6.2,4.35-12.17,7.12-17.7,9.29-18.56,18.86-37,28.45-55.4a4.57,4.57,0,0,1,3.38-2c9-.17,18-.09,27.84-.09-1.13,2.47-1.91,4.41-2.89,6.24q-24.11,45-48.18,90.06a14,14,0,0,0-1.24,6.21c-.1,12.82,0,25.64,0,38.45,0,1.79,0,3.58,0,5.68H991.45V385.27c0-3.83-.41-7.71.08-11.48,1.39-10.67-2.59-19.55-7.76-28.56-15.94-27.81-31.35-55.92-47-83.91C936.51,260.77,936.36,260.14,935.83,258.74Z" transform="translate(-523.6 -221.01)"/><path class="cls-1" d="M823.37,405.68c-9.85,0-19.46.15-29-.17-1.25-.05-2.91-2.29-3.54-3.85q-17.44-43.65-34.67-87.4a23.23,23.23,0,0,0-1.26-2.11c-4,10.25-7.78,19.84-11.53,29.44-7.83,20.07-15.59,40.18-23.58,60.19-.65,1.61-2.77,3.67-4.29,3.74-8.29.36-16.6.17-25.76.17l10.11-23.25Q713.92,350,728,317.57q12.42-28.53,24.92-57c.47-1.07,1.59-1.86,2.41-2.78.86.92,2,1.7,2.52,2.78,6.25,13.57,12.38,27.2,18.58,40.8q23.22,50.94,46.44,101.88A12.78,12.78,0,0,1,823.37,405.68Z" transform="translate(-523.6 -221.01)"/><path class="cls-1" d="M654.59,258.9h29.24V405.45H654.59Z" transform="translate(-523.6 -221.01)"/><path class="cls-1" d="M654.48,221H683.9v30.42H654.48Z" transform="translate(-523.6 -221.01)"/><path class="cls-1" d="M1079.19,288.54c.72-3,.94-4.49,1.42-5.88,1.31-3.81,2.92-7.06-1.16-10.9-2.86-2.69-1.9-7.06,1.3-10.16,2.94-2.83,6.29-3.79,9.9-1.7,3.85,2.25,6.58,5.73,4.66,10.26a98,98,0,0,1-8.74,16C1085.58,287.66,1082.34,287.62,1079.19,288.54Z" transform="translate(-523.6 -221.01)"/></svg>